HIERARCHY
ROOT Hips
{
	OFFSET 0.000000 0.000000 0.000000 
	CHANNELS 6 Xposition Yposition Zposition Zrotation Yrotation Xrotation
	JOINT LeftUpLeg
	{
		OFFSET 1.363060 -1.794630 0.839290 
		CHANNELS 3 Zrotation Yrotation Xrotation
		JOINT LeftLeg
		{
			OFFSET 2.448110 -6.726130 0.000000 
			CHANNELS 3 Zrotation Yrotation Xrotation
			JOINT LeftFoot
			{
				OFFSET 2.562200 -7.039590 0.000000 
				CHANNELS 3 Zrotation Yrotation Xrotation
				JOINT LeftToeBase
				{
					OFFSET 0.157640 -0.433110 2.322550 
					CHANNELS 3 Zrotation Yrotation Xrotation
					End Site
					{
						OFFSET 0.000000 0.000000 0.000000 
					}
				}
			}
		}
	}
	JOINT RightUpLeg
	{
		OFFSET -1.305520 -1.794630 0.839290 
		CHANNELS 3 Zrotation Yrotation Xrotation
		JOINT RightLeg
		{
			OFFSET -2.542530 -6.985550 0.000000 
			CHANNELS 3 Zrotation Yrotation Xrotation
			JOINT RightFoot
			{
				OFFSET -2.568260 -7.056230 0.000000 
				CHANNELS 3 Zrotation Yrotation Xrotation
				JOINT RightToeBase
				{
					OFFSET -0.164730 -0.452590 2.363150 
					CHANNELS 3 Zrotation Yrotation Xrotation
					End Site
					{
						OFFSET 0.000000 0.000000 0.000000 
					}
				}
			}
		}
	}
	JOINT Spine
	{
		OFFSET 0.028270 2.035590 -0.193380 
		CHANNELS 3 Zrotation Yrotation Xrotation
		JOINT Spine1
		{
			OFFSET 0.056720 2.048850 -0.042750 
			CHANNELS 3 Zrotation Yrotation Xrotation
			JOINT Neck1
			{
				OFFSET -0.054170 1.746240 0.172020 
				CHANNELS 3 Zrotation Yrotation Xrotation
				JOINT Head
				{
					OFFSET 0.104070 1.761360 -0.123970 
					CHANNELS 3 Zrotation Yrotation Xrotation
					End Site
					{
						OFFSET 0.000000 0.000000 0.000000 
					}
				}
			}
			JOINT LeftArm
			{
				OFFSET 3.362410 1.200890 -0.311210 
				CHANNELS 3 Zrotation Yrotation Xrotation
				JOINT LeftForeArm
				{
					OFFSET 4.983000 -0.000000 -0.000000 
					CHANNELS 3 Zrotation Yrotation Xrotation
					JOINT LeftHand
					{
						OFFSET 3.483560 -0.000000 -0.000000 
						CHANNELS 3 Zrotation Yrotation Xrotation
						JOINT LeftHandIndex1
						{
							OFFSET 0.715260 -0.000000 -0.000000 
							CHANNELS 3 Zrotation Yrotation Xrotation
							End Site
							{
								OFFSET 0.000000 0.000000 0.000000 
							}
						}
					}
				}
			}
			JOINT RightArm
			{
				OFFSET -3.136600 1.374050 -0.404650 
				CHANNELS 3 Zrotation Yrotation Xrotation
				JOINT RightForeArm
				{
					OFFSET -5.241900 -0.000000 -0.000000 
					CHANNELS 3 Zrotation Yrotation Xrotation
					JOINT RightHand
					{
						OFFSET -3.444170 -0.000000 -0.000000 
						CHANNELS 3 Zrotation Yrotation Xrotation
						JOINT RightHandIndex1
						{
							OFFSET -0.622530 -0.000000 -0.000000 
							CHANNELS 3 Zrotation Yrotation Xrotation
							End Site
							{
								OFFSET 0.000000 0.000000 0.000000 
							}
						}
					}
				}
			}
		}
	}
}
MOTION
Frames: 13
Frame Time: 0.041667
0.272243 17.655397 1.473331 -4.317972 2.687508 1.922660 -14.561496 -22.206933 7.391482 -1.075365 5.446049 17.924360 -1.615877 8.981310 -12.206744 0.436400 -4.238900 -11.749700 25.048828 5.605399 14.397643 1.340590 1.167814 2.549742 1.921100 -10.818899 -8.498307 -0.833400 5.823900 -16.274200 -1.911881 -0.147781 -12.342993 2.632268 -0.024785 -3.306675 11.721019 -17.070153 11.232315 7.656900 -9.205200 10.596100 -22.715378 -64.748599 -37.260732 55.190045 -54.735957 -27.045634 1.460669 3.243424 -29.567931 -7.125000 0.000000 0.000000 1.756917 59.595737 -66.954573 -63.167499 62.527073 -29.922582 -3.432426 -0.628988 -8.231377 7.125000 0.000000 0.000000 
0.271520 17.653435 1.476428 -4.316912 2.692313 1.850027 -14.594350 -22.222823 7.488934 -1.076601 5.448780 17.933435 -1.611098 8.989086 -12.305464 0.437500 -4.244200 -11.764800 25.051937 5.570315 14.470871 1.339825 1.168514 2.549689 1.930792 -10.852678 -8.451670 -0.865900 5.933600 -16.591900 -1.889612 -0.149263 -12.288805 2.672759 -0.021119 -3.272558 11.586705 -17.067558 11.270245 7.596700 -9.215100 10.574500 -22.915787 -64.084478 -37.143915 55.638274 -54.834534 -27.365093 1.435392 3.258932 -29.589888 -7.125000 0.000000 0.000000 1.933877 58.999995 -66.862601 -63.506507 62.592197 -30.131656 -3.437114 -0.663631 -8.037437 7.125000 0.000000 0.000000 
0.268629 17.650957 1.481280 -4.350339 2.704321 1.782195 -14.571077 -22.208928 7.545660 -1.072142 5.460939 17.967180 -1.578917 8.903392 -12.400504 0.426400 -4.190800 -11.614100 25.092339 5.523433 14.556412 1.339833 1.170751 2.552868 1.922403 -10.828941 -8.515473 -0.842700 5.855400 -16.365400 -1.824959 -0.160767 -12.243477 2.714330 -0.024068 -3.214588 11.483609 -17.034295 11.334661 7.573600 -9.221500 10.565500 -22.915407 -63.415952 -37.214289 55.915403 -54.887712 -27.555265 1.463014 3.243318 -29.652359 -7.125000 0.000000 0.000000 2.111922 58.440359 -66.697767 -63.734343 62.626101 -30.264620 -3.445391 -0.689212 -7.715346 7.125000 0.000000 0.000000 
0.266668 17.648893 1.487474 -4.382936 2.731326 1.677709 -14.568866 -22.198232 7.655890 -1.063660 5.467952 17.989292 -1.529067 8.727158 -12.361321 0.352600 -3.815300 -10.557600 25.132060 5.448987 14.673694 1.337942 1.173982 2.556810 1.907260 -10.763552 -8.535741 -0.840200 5.847100 -16.341400 -1.838571 -0.157235 -12.090808 2.727846 -0.020923 -3.076728 11.425594 -16.993515 11.437628 7.557000 -9.210700 10.596800 -22.752032 -62.874148 -37.401160 56.105071 -54.929123 -27.685148 1.492650 3.226571 -29.603976 -7.125000 0.000000 0.000000 2.103697 57.820854 -66.798599 -63.962325 62.674032 -30.391944 -3.454242 -0.708221 -7.741479 7.125000 0.000000 0.000000 
0.266771 17.646002 1.492017 -4.415857 2.733564 1.604425 -14.549523 -22.129162 7.695316 -1.049627 5.479116 18.027657 -1.473463 8.515897 -12.256795 0.306900 -3.561400 -9.846000 25.172247 5.409769 14.765059 1.337131 1.176508 2.558211 1.906669 -10.757636 -8.523472 -0.868500 5.942200 -16.616700 -1.882621 -0.125026 -11.953769 2.706752 -0.003731 -2.952591 11.320862 -16.975595 11.335399 7.500700 -9.208000 10.488800 -22.708837 -62.363444 -37.485617 56.378245 -54.991340 -27.884140 1.478714 3.255692 -29.560092 -7.125000 0.000000 0.000000 2.241543 57.143864 -66.813377 -64.256982 62.730379 -30.556926 -3.458096 -0.722836 -7.858105 7.125000 0.000000 0.000000 
0.266977 17.644144 1.493875 -4.368520 2.798698 1.530252 -14.606247 -22.072394 7.739749 -1.046618 5.483681 18.049636 -1.514821 8.649408 -12.223864 0.384400 -3.981800 -11.025400 25.126222 5.316189 14.827032 1.336173 1.177091 2.561598 1.904644 -10.754157 -8.550849 -0.859500 5.912100 -16.529600 -2.046078 -0.097980 -11.917163 2.648532 0.017988 -2.951152 11.176809 -16.996984 11.236856 7.425000 -9.230400 10.359900 -22.696820 -61.825611 -37.390133 56.552642 -55.014503 -28.006287 1.469488 3.268122 -29.616684 -7.125000 0.000000 0.000000 2.629854 56.434266 -66.709313 -64.738660 62.811487 -30.847060 -3.452718 -0.768923 -7.851143 7.125000 0.000000 0.000000 
0.266461 17.640943 1.497076 -4.399657 2.805930 1.445259 -14.597056 -22.021786 7.812674 -1.047649 5.487093 18.057156 -1.556605 8.792880 -12.230876 0.452100 -4.313500 -11.960300 25.171757 5.269270 14.923814 1.336508 1.179391 2.563449 1.907343 -10.774135 -8.580380 -0.871100 5.950900 -16.642000 -2.156275 -0.055631 -11.898573 2.580344 0.043460 -2.955161 11.069297 -16.996236 11.292393 7.378400 -9.243100 10.330100 -22.710706 -61.252860 -37.280962 56.630703 -55.003003 -28.047918 1.468063 3.271635 -29.684993 -7.125000 0.000000 0.000000 2.928358 55.696640 -66.589368 -65.119854 62.867067 -31.068344 -3.448556 -0.820885 -7.936342 7.125000 0.000000 0.000000 
0.265222 17.638156 1.499553 -4.348681 2.830361 1.334074 -14.684024 -22.018130 7.967270 -1.053505 5.476089 18.032272 -1.554012 8.809413 -12.329732 0.471400 -4.403700 -12.215200 25.123422 5.202070 15.032723 1.335743 1.179579 2.567310 1.899947 -10.753178 -8.637796 -0.861200 5.917800 -16.546000 -2.241641 -0.046859 -11.816164 2.597986 0.054291 -2.922430 11.040004 -16.955787 11.374423 7.375300 -9.231300 10.342400 -22.522309 -60.711717 -37.511835 56.750659 -55.028016 -28.124676 1.448751 3.288114 -29.762845 -7.125000 0.000000 0.000000 2.929119 54.992002 -66.646486 -65.241047 62.882841 -31.114870 -3.451964 -0.858671 -8.281065 7.125000 0.000000 0.000000 
0.264087 17.634646 1.503993 -4.294271 2.849942 1.278161 -14.762526 -21.979104 8.053632 -1.057396 5.468507 18.020906 -1.570901 8.884774 -12.398996 0.506700 -4.563100 -12.666600 25.066570 5.160732 15.093080 1.334679 1.178928 2.569619 1.893369 -10.728020 -8.659141 -0.851500 5.885200 -16.451700 -2.293280 -0.051728 -11.746737 2.635529 0.057585 -2.850081 10.970975 -16.923632 11.458521 7.355700 -9.226700 10.358600 -22.496293 -60.094280 -37.561065 56.987606 -55.070404 -28.289645 1.438778 3.308205 -29.813756 -7.125000 0.000000 0.000000 2.856335 54.362155 -66.821510 -65.254124 62.883948 -31.087792 -3.449565 -0.891677 -8.436165 7.125000 0.000000 0.000000 
0.260576 17.634336 1.508948 -4.167106 2.839837 1.237554 -14.898083 -21.921602 8.118590 -1.053946 5.458310 18.013218 -1.541425 8.781126 -12.369163 0.489900 -4.488000 -12.453800 24.942567 5.153010 15.148450 1.333620 1.175929 2.571319 1.887040 -10.703682 -8.680726 -0.865500 5.932200 -16.587800 -2.361581 -0.076044 -11.715501 2.714804 0.055879 -2.818169 10.934539 -16.844616 11.497848 7.359400 -9.201200 10.334000 -22.765859 -59.407884 -37.365726 57.356871 -55.127212 -28.547129 1.434106 3.313005 -29.820432 -7.125000 0.000000 0.000000 3.007796 53.798471 -66.857598 -65.400278 62.897923 -31.153687 -3.436170 -0.935961 -8.404292 7.125000 0.000000 0.000000 
0.258408 17.632374 1.513697 -4.204276 2.847659 1.175955 -14.865388 -21.886655 8.171829 -1.048992 5.464593 18.027317 -1.521747 8.706516 -12.332144 0.464900 -4.373600 -12.130100 24.998653 5.105582 15.234938 1.333471 1.178757 2.572546 1.891771 -10.724630 -8.676120 -0.872400 5.955000 -16.653800 -2.413895 -0.072948 -11.709215 2.696084 0.059905 -2.817613 10.940805 -16.781931 11.511031 7.381500 -9.183200 10.287700 -23.204455 -58.775770 -37.029727 57.805562 -55.196346 -28.867064 1.410075 3.329358 -29.810642 -7.125000 0.000000 0.000000 3.322113 53.137428 -66.757281 -65.573043 62.907351 -31.229612 -3.429790 -0.986812 -8.417119 7.125000 0.000000 0.000000 
0.257995 17.629174 1.516691 -4.282567 2.857353 1.073563 -14.819887 -21.852851 8.259675 -1.046827 5.473804 18.047225 -1.547415 8.792241 -12.325274 0.498400 -4.525900 -12.561100 25.089811 5.046290 15.345292 1.333184 1.182867 2.573727 1.899220 -10.753986 -8.656632 -0.867100 5.937500 -16.603100 -2.379727 -0.074256 -11.628072 2.695194 0.058766 -2.775594 10.950295 -16.731186 11.492171 7.409700 -9.173200 10.249700 -23.270996 -58.206924 -37.163997 57.996437 -55.224351 -28.991818 1.418113 3.333532 -29.763538 -7.125000 0.000000 0.000000 3.473507 52.543355 -66.811876 -65.776319 62.933280 -31.334489 -3.426354 -1.029886 -8.481648 7.125000 0.000000 0.000000 
0.258408 17.627832 1.518240 -4.359504 2.886224 0.979215 -14.764802 -21.844622 8.322367 -1.040100 5.491458 18.091075 -1.537864 8.765679 -12.349147 0.527200 -4.653000 -12.921400 25.163414 4.977688 15.436055 1.331635 1.186721 2.576879 1.886308 -10.697179 -8.668521 -0.848400 5.874700 -16.421400 -2.356669 -0.077751 -11.553286 2.680601 0.056764 -2.736447 10.947079 -16.695408 11.475890 7.429400 -9.170500 10.212500 -23.198734 -57.667869 -37.406457 58.082315 -55.234487 -29.041165 1.444429 3.325363 -29.971782 -7.125000 0.000000 0.000000 3.579546 51.932448 -66.951885 -66.048151 62.974495 -31.483810 -3.412139 -1.077018 -8.567222 7.125000 0.000000 0.000000 
